<svg xmlns="http://www.w3.org/2000/svg" width="23.417" height="23.412" viewBox="0 0 23.417 23.412">
  <path id="Icon_awesome-instagram" data-name="Icon awesome-instagram" d="M11.706,7.941a6,6,0,1,0,6,6A5.993,5.993,0,0,0,11.706,7.941Zm0,9.905a3.9,3.9,0,1,1,3.9-3.9,3.91,3.91,0,0,1-3.9,3.9ZM19.354,7.7a1.4,1.4,0,1,1-1.4-1.4A1.4,1.4,0,0,1,19.354,7.7ZM23.33,9.117a6.929,6.929,0,0,0-1.891-4.906A6.974,6.974,0,0,0,16.533,2.32c-1.933-.11-7.727-.11-9.66,0A6.964,6.964,0,0,0,1.968,4.206,6.951,6.951,0,0,0,.077,9.111c-.11,1.933-.11,7.727,0,9.66a6.929,6.929,0,0,0,1.891,4.906,6.983,6.983,0,0,0,4.906,1.891c1.933.11,7.727.11,9.66,0a6.929,6.929,0,0,0,4.906-1.891,6.974,6.974,0,0,0,1.891-4.906c.11-1.933.11-7.721,0-9.654Zm-2.5,11.728a3.951,3.951,0,0,1-2.226,2.226c-1.541.611-5.2.47-6.9.47s-5.365.136-6.9-.47a3.951,3.951,0,0,1-2.226-2.226c-.611-1.541-.47-5.2-.47-6.9s-.136-5.365.47-6.9A3.951,3.951,0,0,1,4.8,4.817c1.541-.611,5.2-.47,6.9-.47s5.365-.136,6.9.47a3.951,3.951,0,0,1,2.226,2.226c.611,1.541.47,5.2.47,6.9S21.444,19.309,20.833,20.845Z" transform="translate(0.005 -2.238)"/>
</svg>
