<svg height="512" viewBox="0 0 176 176" width="512" xmlns="http://www.w3.org/2000/svg"><g id="Layer_2" data-name="Layer 2"><g id="_25.line" data-name="25.line"><path d="m72.84 89.39a2.76 2.76 0 0 1 .83 2 2.81 2.81 0 0 1 -2.81 2.82h-11.25a2.83 2.83 0 0 1 -2.82-2.82v-21.25a2.78 2.78 0 0 1 .83-2 2.81 2.81 0 0 1 4.8 2v18.43h8.44a2.75 2.75 0 0 1 1.98.82z"/><rect height="26.87" rx="2.2" width="5.63" x="76.34" y="67.33"/><path d="m108.12 70.14v21.13a2.93 2.93 0 0 1 -2.83 2.93 2.84 2.84 0 0 1 -1.91-.78c-.1-.08-3.88-5-7.09-9.14-2.4-3.09-4.48-5.79-4.48-5.79v12.89a2.81 2.81 0 0 1 -4.71 2.08 2.8 2.8 0 0 1 -.92-2.08v-21.12a2.9 2.9 0 0 1 2.71-2.93 2.84 2.84 0 0 1 2.21 1c.12.14 5.93 7.7 9.2 12 1.3 1.68 2.2 2.86 2.2 2.86v-13a2.83 2.83 0 0 1 2.81-2.81 2.81 2.81 0 0 1 2.81 2.76z"/><path d="m118 73v5h8.43a2.81 2.81 0 1 1 0 5.62h-8.43v5h8.43a2.82 2.82 0 1 1 0 5.63h-11.28a2.82 2.82 0 0 1 -2.81-2.82v-21.29a2.82 2.82 0 0 1 2.81-2.81h11.25a2.82 2.82 0 1 1 0 5.63z"/><path d="m173 31.48a32.06 32.06 0 0 0 -28.48-28.48 532.59 532.59 0 0 0 -113 0 32.06 32.06 0 0 0 -28.52 28.48 532.59 532.59 0 0 0 0 113 32.07 32.07 0 0 0 28.48 28.52 532.59 532.59 0 0 0 113 0 32.07 32.07 0 0 0 28.52-28.48 532.59 532.59 0 0 0 0-113.04zm-30 50.52a28.7 28.7 0 0 1 -.43 3.33 36.77 36.77 0 0 1 -4.21 12c-1 1.78-5.81 8.54-7.28 10.32-8.13 9.79-21.75 21.09-44.51 32.08a3 3 0 0 1 -4.29-3l1.15-10.33a3 3 0 0 0 -2.65-3.31 63.94 63.94 0 0 1 -21.78-6.21c-15.6-7.71-26-21.48-26-37.17 0-24.16 24.62-43.71 55-43.71 15.26 0 29.06 5 39 12.93 9.31 7.45 15.27 17.56 15.91 28.78a40 40 0 0 1 .09 4.29z"/></g></g></svg>