<svg xmlns="http://www.w3.org/2000/svg" width="17.258" height="17" viewBox="0 0 17.258 17">
  <path id="Icon_awesome-instagram" data-name="Icon awesome-instagram" d="M8.626,6.379a4.359,4.359,0,1,0,4.424,4.359A4.385,4.385,0,0,0,8.626,6.379Zm0,7.192A2.834,2.834,0,1,1,11.5,10.738a2.86,2.86,0,0,1-2.876,2.834ZM14.262,6.2A1.032,1.032,0,1,1,13.23,5.184,1.022,1.022,0,0,1,14.262,6.2Zm2.93,1.032A4.99,4.99,0,0,0,15.8,3.671,5.183,5.183,0,0,0,12.183,2.3c-1.425-.08-5.694-.08-7.119,0A5.176,5.176,0,0,0,1.449,3.667,5.006,5.006,0,0,0,.055,7.229c-.081,1.4-.081,5.61,0,7.014A4.99,4.99,0,0,0,1.449,17.8a5.189,5.189,0,0,0,3.615,1.373c1.425.08,5.694.08,7.119,0A5.149,5.149,0,0,0,15.8,17.8a5.023,5.023,0,0,0,1.394-3.562c.081-1.4.081-5.607,0-7.01Zm-1.84,8.516a2.891,2.891,0,0,1-1.64,1.616c-1.136.444-3.831.341-5.086.341s-3.954.1-5.086-.341A2.891,2.891,0,0,1,1.9,15.749c-.45-1.119-.347-3.774-.347-5.011s-.1-3.9.347-5.011A2.891,2.891,0,0,1,3.54,4.111c1.136-.444,3.831-.341,5.086-.341s3.954-.1,5.086.341a2.891,2.891,0,0,1,1.64,1.616c.45,1.119.347,3.774.347,5.011S15.8,14.633,15.352,15.749Z" transform="translate(0.005 -2.238)"/>
</svg>
