<svg xmlns="http://www.w3.org/2000/svg" width="15.5" height="20.146" viewBox="0 0 15.5 20.146">
  <path id="Icon_awesome-pinterest-p" data-name="Icon awesome-pinterest-p" d="M8.234.457C4.093.457,0,3.218,0,7.686a5.754,5.754,0,0,0,2.567,4.456,6.3,6.3,0,0,0,.63-1.429c0-.375-.957-1.175-.957-2.737A5.455,5.455,0,0,1,7.907,2.431c2.749,0,4.783,1.562,4.783,4.432,0,2.143-.86,6.164-3.645,6.164a1.792,1.792,0,0,1-1.865-1.768c0-1.526,1.066-3,1.066-4.577,0-2.672-3.79-2.188-3.79,1.041a4.742,4.742,0,0,0,.387,2.046c-.557,2.4-1.7,5.97-1.7,8.44,0,.763.109,1.514.182,2.277.137.153.069.137.279.061,2.034-2.785,1.962-3.33,2.882-6.975a3.274,3.274,0,0,0,2.8,1.453c4.287,0,6.212-4.178,6.212-7.944C15.5,3.073,12.037.457,8.234.457Z" transform="translate(0 -0.457)"/>
</svg>
