<svg xmlns="http://www.w3.org/2000/svg" width="17.181" height="16.577" viewBox="0 0 17.181 16.577">
  <path id="Icon_awesome-twitter" data-name="Icon awesome-twitter" d="M15.415,7.512c.011.181.011.363.011.544,0,5.53-3.543,11.9-10.018,11.9A8.847,8.847,0,0,1,0,18.08a6.144,6.144,0,0,0,.85.052,6.381,6.381,0,0,0,4.371-1.787,3.664,3.664,0,0,1-3.292-2.9,3.755,3.755,0,0,0,.665.065,3.172,3.172,0,0,0,.927-.142A4.071,4.071,0,0,1,.7,9.26V9.209a3.136,3.136,0,0,0,1.592.531A4.432,4.432,0,0,1,.719,6.256,4.762,4.762,0,0,1,1.2,4.145a9.593,9.593,0,0,0,7.26,4.377,5.577,5.577,0,0,1-.087-.958c0-2.305,1.57-4.183,3.521-4.183A3.282,3.282,0,0,1,14.466,4.7,6.31,6.31,0,0,0,16.7,3.692,4.121,4.121,0,0,1,15.153,6a6.2,6.2,0,0,0,2.028-.648,8.5,8.5,0,0,1-1.766,2.163Z" transform="translate(0 -3.381)"/>
</svg>
