<svg xmlns="http://www.w3.org/2000/svg" width="22.098" height="16.577" viewBox="0 0 22.098 16.577">
  <path id="Icon_ionic-logo-youtube" data-name="Icon ionic-logo-youtube" d="M21.954,8.16A3.355,3.355,0,0,0,18.76,4.655c-2.391-.112-4.83-.155-7.321-.155h-.777c-2.486,0-4.93.043-7.321.155A3.363,3.363,0,0,0,.151,8.169C.043,9.706,0,11.243,0,12.779s.043,3.073.147,4.614a3.367,3.367,0,0,0,3.19,3.518c2.512.117,5.089.168,7.709.164s5.193-.043,7.709-.164a3.367,3.367,0,0,0,3.194-3.518c.1-1.541.151-3.078.147-4.619S22.058,9.7,21.954,8.16ZM8.935,17.014V8.532l6.259,4.239Z" transform="translate(0 -4.5)"/>
</svg>
